<svg width="80" height="80" viewBox="0 0 80 80" fill="none" xmlns="http://www.w3.org/2000/svg">
<g clip-path="url(#clip0_201077_321162)">
<path d="M39.9914 79.9827C62.078 79.9827 79.9827 62.078 79.9827 39.9914C79.9827 17.9047 62.078 0 39.9914 0C17.9047 0 0 17.9047 0 39.9914C0 62.078 17.9047 79.9827 39.9914 79.9827Z" fill="#EBEEF6"/>
<path d="M60.8682 51.1258L44.7168 41.8008L17.896 57.2858L34.0475 66.6108L60.8682 51.1258Z" fill="black" fill-opacity="0.1"/>
<path d="M65.3806 58.2638L56.9434 53.3926L37.9741 64.3445L46.4113 69.2158L65.3806 58.2638Z" fill="black" fill-opacity="0.1"/>
<path fill-rule="evenodd" clip-rule="evenodd" d="M33.5938 57.75H35.7251L35.2176 64.2099C35.2176 64.2932 35.1632 64.375 35.0542 64.4382C34.8363 64.5645 34.4825 64.5645 34.2646 64.4382C34.1556 64.375 34.1012 64.2932 34.1012 64.2099L33.5938 57.75Z" fill="#C4AD8E"/>
<path d="M35.4154 58.1852C35.8316 57.9448 35.8316 57.5552 35.4153 57.3149C34.9991 57.0746 34.3242 57.0746 33.908 57.3149C33.4917 57.5552 33.4917 57.9448 33.908 58.1851C34.3242 58.4255 34.9991 58.4255 35.4154 58.1852Z" fill="#FF7D00"/>
<path fill-rule="evenodd" clip-rule="evenodd" d="M20.5273 50.2051H22.6586L22.1512 56.665C22.1512 56.7483 22.0968 56.8301 21.9878 56.8933C21.7699 57.0196 21.4161 57.0196 21.1982 56.8933C21.0892 56.8301 21.0348 56.7483 21.0348 56.665L20.5273 50.2051Z" fill="#C4AD8E"/>
<path d="M22.3489 50.6402C22.7652 50.3999 22.7652 50.0103 22.3489 49.77C21.9327 49.5296 21.2578 49.5296 20.8416 49.7699C20.4253 50.0103 20.4253 50.3999 20.8416 50.6402C21.2578 50.8805 21.9327 50.8806 22.3489 50.6402Z" fill="#FF7D00"/>
<path fill-rule="evenodd" clip-rule="evenodd" d="M53.5547 46.2305H55.686L55.1785 52.6904C55.1785 52.7737 55.1241 52.8555 55.0151 52.9187C54.7972 53.045 54.4435 53.045 54.2255 52.9187C54.1166 52.8555 54.0622 52.7737 54.0622 52.6904L53.5547 46.2305Z" fill="#C4AD8E"/>
<path d="M55.3763 46.6656C55.7925 46.4253 55.7925 46.0357 55.3763 45.7953C54.96 45.555 54.2851 45.555 53.8689 45.7953C53.4527 46.0357 53.4527 46.4253 53.8689 46.6656C54.2852 46.9059 54.9601 46.9059 55.3763 46.6656Z" fill="#FF7D00"/>
<path fill-rule="evenodd" clip-rule="evenodd" d="M40.4785 38.6816H42.6098L42.1023 45.1416C42.1023 45.2248 42.0479 45.3067 41.939 45.3698C41.721 45.4962 41.3673 45.4962 41.1494 45.3698C41.0404 45.3067 40.986 45.2248 40.986 45.1416L40.4785 38.6816Z" fill="#C4AD8E"/>
<path d="M42.3001 39.1168C42.7164 38.8765 42.7164 38.4868 42.3001 38.2465C41.8838 38.0062 41.209 38.0062 40.7927 38.2465C40.3765 38.4868 40.3765 38.8765 40.7928 39.1168C41.209 39.3571 41.8839 39.3571 42.3001 39.1168Z" fill="#FF7D00"/>
<path d="M41.5298 14.922L20.0586 27.3184L34.5951 35.711L56.0662 23.3147L41.5298 14.922Z" fill="#FDF3E4"/>
<path d="M56.0607 23.3108L34.5898 35.707L34.5898 62.0008L56.0607 49.6045L56.0607 23.3108Z" fill="#C4AD8E"/>
<path fill-rule="evenodd" clip-rule="evenodd" d="M54.9527 25.7928C54.9527 25.5341 54.7933 25.4136 54.5995 25.5255L36.0661 36.2258C35.8705 36.3387 35.7129 36.6422 35.7129 36.9009L35.7129 59.5203C35.7129 59.7816 35.8705 59.9006 36.0661 59.7877L54.5995 49.0874C54.7933 48.9755 54.9527 48.6734 54.9527 48.4122L54.9527 25.7928Z" fill="#846133"/>
<path fill-rule="evenodd" clip-rule="evenodd" d="M54.3154 26.1451C54.3154 25.895 54.1613 25.7785 53.9739 25.8867L36.0544 36.2325C35.8652 36.3417 35.7129 36.6352 35.7129 36.8853L35.7129 58.7555C35.7129 59.0081 35.8652 59.1232 36.0544 59.014L53.9739 48.6681C54.1613 48.56 54.3154 48.2679 54.3154 48.0153L54.3154 26.1451Z" fill="#C4AD8E"/>
<path d="M34.5951 35.7071L20.0586 27.3145V53.6083L34.5951 62.001V35.7071Z" fill="#F0DAB7"/>
<path d="M42.4401 11.352L17.6172 25.6836L32.9651 34.5447L57.788 20.2132L42.4401 11.352Z" fill="#FDF3E4"/>
<path d="M32.9651 34.3533L17.6172 25.4922V27.7892L32.9651 36.6503V34.3533Z" fill="#F0DAB7"/>
<path d="M42.4401 11.352L17.6172 25.6836L32.9651 34.5447L57.788 20.2132L42.4401 11.352Z" fill="#FDF3E4"/>
<path d="M56.4059 43.0713L36.2793 54.6914V60.9613L56.4059 49.3412V43.0713Z" fill="#B09B80"/>
<path fill-rule="evenodd" clip-rule="evenodd" d="M48.5529 50.7453C48.5529 50.4591 48.3787 50.3274 48.1641 50.4513L45.6134 51.924C45.3988 52.0479 45.2246 52.3807 45.2246 52.6669C45.2246 52.953 45.3988 53.0847 45.6134 52.9608L48.1641 51.4882C48.3787 51.3643 48.5529 51.0314 48.5529 50.7453Z" fill="#846133"/>
<path fill-rule="evenodd" clip-rule="evenodd" d="M48.2298 50.5942C48.2298 50.4944 48.169 50.4485 48.0943 50.4916L45.3601 52.0702C45.2851 52.1135 45.2246 52.2294 45.2246 52.3292C45.2246 52.429 45.2851 52.4751 45.3601 52.4318L48.0943 50.8532C48.169 50.8101 48.2298 50.694 48.2298 50.5942Z" fill="#F6DCB9"/>
<path d="M55.8397 42.745L35.7129 54.3652L36.283 54.6944L56.4098 43.0742L55.8397 42.745Z" fill="#F0DAB7"/>
<path d="M36.283 54.6944L35.7129 54.3652V60.6352L36.283 60.9643V54.6944Z" fill="#F0DAB7"/>
<path d="M56.4059 36.6123L36.2793 48.2324V54.5023L56.4059 42.8822V36.6123Z" fill="#C4AD8E"/>
<path fill-rule="evenodd" clip-rule="evenodd" d="M48.5529 44.2863C48.5529 44.0001 48.3787 43.8684 48.1641 43.9924L45.6134 45.465C45.3988 45.5889 45.2246 45.9217 45.2246 46.2079C45.2246 46.494 45.3988 46.6257 45.6134 46.5018L48.1641 45.0292C48.3787 44.9053 48.5529 44.5724 48.5529 44.2863Z" fill="#846133"/>
<path fill-rule="evenodd" clip-rule="evenodd" d="M48.2298 44.1352C48.2298 44.0354 48.169 43.9895 48.0943 44.0326L45.3601 45.6112C45.2851 45.6545 45.2246 45.7705 45.2246 45.8703C45.2246 45.97 45.2851 46.0161 45.3601 45.9728L48.0943 44.3942C48.169 44.3511 48.2298 44.235 48.2298 44.1352Z" fill="#F6DCB9"/>
<path d="M55.8397 36.2861L35.7129 47.9062L36.283 48.2354L56.4098 36.6152L55.8397 36.2861Z" fill="#F0DAB7"/>
<path d="M36.283 48.2354L35.7129 47.9062V54.1762L36.283 54.5053V48.2354Z" fill="#F0DAB7"/>
<path d="M56.4059 30.1181L36.2793 41.7383V48.0082L56.4059 36.3881V30.1181Z" fill="#C4AD8E"/>
<path fill-rule="evenodd" clip-rule="evenodd" d="M48.5529 37.7922C48.5529 37.506 48.3787 37.3743 48.1641 37.4982L45.6134 38.9708C45.3988 39.0947 45.2246 39.4276 45.2246 39.7137C45.2246 39.9999 45.3988 40.1316 45.6134 40.0077L48.1641 38.5351C48.3787 38.4112 48.5529 38.0783 48.5529 37.7922Z" fill="#846133"/>
<path fill-rule="evenodd" clip-rule="evenodd" d="M48.2298 37.641C48.2298 37.5412 48.169 37.4954 48.0943 37.5385L45.3601 39.1171C45.2851 39.1604 45.2246 39.2763 45.2246 39.3761C45.2246 39.4759 45.2851 39.522 45.3601 39.4787L48.0943 37.9001C48.169 37.857 48.2298 37.7408 48.2298 37.641Z" fill="#F6DCB9"/>
<path d="M55.8397 29.7919L35.7129 41.4121L36.283 41.7412L56.4098 30.121L55.8397 29.7919Z" fill="#F0DAB7"/>
<path d="M36.283 41.7412L35.7129 41.4121V47.682L36.283 48.0112V41.7412Z" fill="#F0DAB7"/>
<path fill-rule="evenodd" clip-rule="evenodd" d="M36.2793 41.7388V54.5062L47.0377 48.2948V35.5273L36.2793 41.7388Z" fill="black" fill-opacity="0.1"/>
<path d="M54.3321 25.6857L35.7129 36.4355L46.9379 42.9163L65.5572 32.1665L54.3321 25.6857Z" fill="#FDF3E4"/>
<path d="M54.0416 26.178L36.5625 36.2695L46.9345 42.2578L64.4137 32.1663L54.0416 26.178Z" fill="#846133"/>
<path d="M54.0091 29.6657L39.5703 38.002L46.9337 42.2532L61.3725 33.917L54.0091 29.6657Z" fill="#F0DAB7"/>
<path d="M65.5625 32.1643L46.9434 42.9141V47.8674L65.5625 37.1177V32.1643Z" fill="#C4AD8E"/>
<path d="M65.5625 32.1643L46.9434 42.9141V47.8674L65.5625 37.1177V32.1643Z" fill="#C4AD8E"/>
<path d="M46.938 42.9105L35.7129 36.4297V41.2394L46.938 47.7202V42.9105Z" fill="#F0DAB7"/>
<path d="M66.3083 31.0693L46.1816 42.6895V48.9594L66.3083 37.3392V31.0693Z" fill="#C4AD8E"/>
<path d="M66.8747 31.3974L46.748 43.0176V49.2875L66.8747 37.6674V31.3974Z" fill="#C4AD8E"/>
<path fill-rule="evenodd" clip-rule="evenodd" d="M59.0216 39.0715C59.0216 38.7853 58.8474 38.6536 58.6328 38.7775L56.0822 40.2501C55.8676 40.374 55.6934 40.7069 55.6934 40.993C55.6934 41.2792 55.8676 41.4109 56.0822 41.287L58.6328 39.8144C58.8474 39.6905 59.0216 39.3576 59.0216 39.0715Z" fill="#846133"/>
<path fill-rule="evenodd" clip-rule="evenodd" d="M58.6986 38.9203C58.6986 38.8205 58.6378 38.7747 58.5631 38.8178L55.8289 40.3964C55.7539 40.4397 55.6934 40.5556 55.6934 40.6554C55.6934 40.7552 55.7539 40.8013 55.8289 40.758L58.5631 39.1794C58.6378 39.1363 58.6986 39.0201 58.6986 38.9203Z" fill="#F6DCB9"/>
<path d="M66.3085 31.0712L46.1816 42.6914L46.7517 43.0205L66.8786 31.4003L66.3085 31.0712Z" fill="#F0DAB7"/>
<path d="M46.7517 43.0205L46.1816 42.6914V48.9613L46.7517 49.2905V43.0205Z" fill="#F0DAB7"/>
<path d="M57.7916 20.2135L32.9688 34.5449V36.8419L57.7916 22.5104V20.2135Z" fill="#C4AD8E"/>
<path fill-rule="evenodd" clip-rule="evenodd" d="M57.1157 36.1241C57.5054 35.8991 57.5478 35.5577 57.2101 35.3628L51.5106 32.0722C51.1729 31.8772 50.5816 31.9017 50.1919 32.1267L44.5406 35.3894C44.1509 35.6144 44.1094 35.9553 44.447 36.1503L50.1466 39.4409C50.4843 39.6359 51.0747 39.6119 51.4644 39.3869L57.1157 36.1241Z" fill="white"/>
<path d="M53.4315 37.2584C54.8686 36.4287 54.8685 35.0834 53.4313 34.2537C51.9941 33.4239 49.6641 33.4239 48.227 34.2536C46.79 35.0833 46.7901 36.4285 48.2272 37.2583C49.6644 38.088 51.9945 38.0881 53.4315 37.2584Z" fill="#FF7D00"/>
<path d="M48.2128 35.1907L48.2116 35.19C48.2103 35.1892 48.2093 35.1884 48.2086 35.1874C48.2079 35.1864 48.2074 35.1851 48.2072 35.1835C48.2071 35.1822 48.2068 35.1812 48.2063 35.1805C48.2059 35.1798 48.2052 35.1792 48.2043 35.1786C48.2031 35.178 48.2019 35.1777 48.2004 35.1778C48.1989 35.1779 48.1975 35.1783 48.1961 35.1791C48.1946 35.18 48.1935 35.1809 48.1928 35.182C48.192 35.183 48.1916 35.1842 48.1916 35.1854L48.1878 35.1846C48.1878 35.1834 48.1883 35.1822 48.1892 35.1809C48.1902 35.1795 48.1915 35.1784 48.1933 35.1773C48.1956 35.176 48.198 35.1753 48.2007 35.1751C48.2032 35.175 48.2055 35.1755 48.2074 35.1766C48.2086 35.1773 48.2095 35.1781 48.2101 35.1791C48.2106 35.18 48.211 35.1813 48.211 35.1829C48.2111 35.1845 48.2114 35.1857 48.2119 35.1866C48.2124 35.1874 48.2131 35.1882 48.214 35.1889L48.2149 35.1895L48.2128 35.1907ZM48.2192 35.1956L48.2151 35.1932L48.2192 35.1908L48.2233 35.1932L48.2192 35.1956Z" fill="white"/>
</g>
<defs>
<clipPath id="clip0_201077_321162">
<rect width="80" height="80" fill="white"/>
</clipPath>
</defs>
</svg>
