<svg width="14" height="14" viewBox="0 0 14 14" fill="none" xmlns="http://www.w3.org/2000/svg">
<g clip-path="url(#clip0_200526_285551)">
<g clip-path="url(#clip1_200526_285551)">
<path d="M0.949158 5.21978C0.949145 5.31327 0.967548 5.40585 1.00332 5.49222C1.03909 5.5786 1.09152 5.65709 1.15762 5.7232C1.22373 5.78932 1.30221 5.84176 1.38858 5.87754C1.47495 5.91332 1.56753 5.93174 1.66102 5.93174C1.75451 5.93174 1.84709 5.91332 1.93346 5.87754C2.01984 5.84176 2.09832 5.78932 2.16442 5.7232C2.23053 5.65709 2.28296 5.5786 2.31873 5.49222C2.3545 5.40585 2.3729 5.31327 2.37289 5.21978C2.3729 5.12628 2.3545 5.03371 2.31873 4.94733C2.28296 4.86095 2.23053 4.78246 2.16442 4.71635C2.09832 4.65023 2.01984 4.59779 1.93346 4.56201C1.84709 4.52623 1.75451 4.50781 1.66102 4.50781C1.56753 4.50781 1.47495 4.52623 1.38858 4.56201C1.30221 4.59779 1.22373 4.65023 1.15762 4.71635C1.09152 4.78246 1.03909 4.86095 1.00332 4.94733C0.967548 5.03371 0.949145 5.12628 0.949158 5.21978V5.21978Z" fill="#4E5969"/>
<path d="M6.28815 2.84663C6.28815 3.03543 6.36315 3.21649 6.49665 3.34999C6.63015 3.48349 6.81121 3.55849 7.00001 3.55849C7.18881 3.55849 7.36988 3.48349 7.50338 3.34999C7.63688 3.21649 7.71188 3.03543 7.71188 2.84663C7.71188 2.75315 7.69346 2.66058 7.65769 2.57421C7.62191 2.48784 7.56948 2.40937 7.50338 2.34327C7.43727 2.27716 7.3588 2.22473 7.27243 2.18895C7.18606 2.15318 7.0935 2.13477 7.00001 2.13477C6.90653 2.13477 6.81396 2.15318 6.72759 2.18895C6.64123 2.22473 6.56275 2.27716 6.49665 2.34327C6.43054 2.40937 6.37811 2.48784 6.34233 2.57421C6.30656 2.66058 6.28815 2.75315 6.28815 2.84663V2.84663Z" fill="#4E5969"/>
<path d="M3.20337 2.84722C3.20336 2.92513 3.21869 3.00228 3.2485 3.07426C3.27831 3.14624 3.322 3.21165 3.37709 3.26674C3.43217 3.32184 3.49757 3.36554 3.56955 3.39536C3.64153 3.42518 3.71868 3.44053 3.79659 3.44053C3.8745 3.44053 3.95165 3.42518 4.02363 3.39536C4.0956 3.36554 4.161 3.32184 4.21609 3.26674C4.27118 3.21165 4.31487 3.14624 4.34468 3.07426C4.37449 3.00228 4.38982 2.92513 4.38981 2.84722C4.38982 2.76931 4.37449 2.69216 4.34468 2.62017C4.31487 2.54819 4.27118 2.48278 4.21609 2.42769C4.161 2.37259 4.0956 2.32889 4.02363 2.29907C3.95165 2.26925 3.8745 2.25391 3.79659 2.25391C3.71868 2.25391 3.64153 2.26925 3.56955 2.29907C3.49757 2.32889 3.43217 2.37259 3.37709 2.42769C3.322 2.48278 3.27831 2.54819 3.2485 2.62017C3.21869 2.69216 3.20336 2.76931 3.20337 2.84722V2.84722Z" fill="#4E5969"/>
<path d="M9.61017 2.96636C9.61016 3.04427 9.62549 3.12142 9.6553 3.1934C9.68511 3.26538 9.7288 3.33079 9.78389 3.38589C9.83897 3.44098 9.90437 3.48469 9.97635 3.5145C10.0483 3.54432 10.1255 3.55967 10.2034 3.55967C10.2813 3.55967 10.3584 3.54432 10.4304 3.5145C10.5024 3.48469 10.5678 3.44098 10.6229 3.38589C10.678 3.33079 10.7217 3.26538 10.7515 3.1934C10.7813 3.12142 10.7966 3.04427 10.7966 2.96636C10.7966 2.88845 10.7813 2.8113 10.7515 2.73931C10.7217 2.66733 10.678 2.60192 10.6229 2.54683C10.5678 2.49173 10.5024 2.44803 10.4304 2.41821C10.3584 2.38839 10.2813 2.37305 10.2034 2.37305C10.1255 2.37305 10.0483 2.38839 9.97635 2.41821C9.90437 2.44803 9.83897 2.49173 9.78389 2.54683C9.7288 2.60192 9.68511 2.66733 9.6553 2.73931C9.62549 2.8113 9.61016 2.88845 9.61017 2.96636V2.96636Z" fill="#4E5969"/>
<path d="M11.983 2.60934C11.983 2.73521 12.033 2.85592 12.122 2.94492C12.211 3.03392 12.3317 3.08392 12.4576 3.08392C12.5835 3.08392 12.7042 3.03392 12.7932 2.94492C12.8822 2.85592 12.9322 2.73521 12.9322 2.60934C12.9322 2.48348 12.8822 2.36277 12.7932 2.27377C12.7042 2.18477 12.5835 2.13477 12.4576 2.13477C12.3317 2.13477 12.211 2.18477 12.122 2.27377C12.033 2.36277 11.983 2.48348 11.983 2.60934Z" fill="#4E5969"/>
<path d="M0.949158 2.72848C0.949158 2.85435 0.999158 2.97506 1.08816 3.06406C1.17716 3.15306 1.29787 3.20306 1.42373 3.20306C1.5496 3.20306 1.67031 3.15306 1.75931 3.06406C1.84831 2.97506 1.89831 2.85435 1.89831 2.72848C1.89831 2.60262 1.84831 2.48191 1.75931 2.39291C1.67031 2.30391 1.5496 2.25391 1.42373 2.25391C1.29787 2.25391 1.17716 2.30391 1.08816 2.39291C0.999158 2.48191 0.949158 2.60262 0.949158 2.72848V2.72848Z" fill="#4E5969"/>
<path d="M6.52545 0.474576C6.52545 0.600442 6.57545 0.721152 6.66445 0.810152C6.75345 0.899153 6.87416 0.949153 7.00003 0.949153C7.12589 0.949153 7.2466 0.899153 7.3356 0.810152C7.4246 0.721152 7.4746 0.600442 7.4746 0.474576C7.4746 0.348711 7.4246 0.228 7.3356 0.139C7.2466 0.0499999 7.12589 0 7.00003 0C6.87416 0 6.75345 0.0499999 6.66445 0.139C6.57545 0.228 6.52545 0.348711 6.52545 0.474576V0.474576Z" fill="#4E5969"/>
<path d="M4.15253 0.830542C4.15253 0.877283 4.16173 0.923567 4.17962 0.966751C4.19751 1.00993 4.22373 1.04917 4.25678 1.08222C4.28983 1.11528 4.32907 1.14149 4.37225 1.15938C4.41543 1.17727 4.46172 1.18647 4.50846 1.18647C4.5552 1.18647 4.60148 1.17727 4.64467 1.15938C4.68785 1.14149 4.72709 1.11528 4.76014 1.08222C4.79319 1.04917 4.81941 1.00993 4.8373 0.966751C4.85518 0.923567 4.86439 0.877283 4.86439 0.830542C4.86439 0.7838 4.85518 0.737516 4.8373 0.694332C4.81941 0.651149 4.79319 0.611911 4.76014 0.57886C4.72709 0.545808 4.68785 0.51959 4.64467 0.501703C4.60148 0.483816 4.5552 0.474609 4.50846 0.474609C4.46172 0.474609 4.41543 0.483816 4.37225 0.501703C4.32907 0.51959 4.28983 0.545808 4.25678 0.57886C4.22373 0.611911 4.19751 0.651149 4.17962 0.694332C4.16173 0.737516 4.15253 0.7838 4.15253 0.830542V0.830542Z" fill="#4E5969"/>
<path d="M8.89832 1.18601C8.89832 1.28041 8.93581 1.37094 9.00257 1.43769C9.06932 1.50444 9.15985 1.54194 9.25425 1.54194C9.34865 1.54194 9.43918 1.50444 9.50593 1.43769C9.57268 1.37094 9.61018 1.28041 9.61018 1.18601C9.61018 1.09161 9.57268 1.00108 9.50593 0.934328C9.43918 0.867578 9.34865 0.830078 9.25425 0.830078C9.15985 0.830078 9.06932 0.867578 9.00257 0.934328C8.93581 1.00108 8.89832 1.09161 8.89832 1.18601Z" fill="#4E5969"/>
<path d="M11.7458 5.10259C11.7458 5.19608 11.7642 5.28866 11.7999 5.37504C11.8357 5.46142 11.8881 5.5399 11.9543 5.60602C12.0204 5.67213 12.0988 5.72457 12.1852 5.76035C12.2716 5.79614 12.3642 5.81455 12.4577 5.81455C12.5511 5.81455 12.6437 5.79614 12.7301 5.76035C12.8165 5.72457 12.8949 5.67213 12.9611 5.60602C13.0272 5.5399 13.0796 5.46142 13.1154 5.37504C13.1511 5.28866 13.1695 5.19608 13.1695 5.10259C13.1695 5.0091 13.1511 4.91652 13.1154 4.83014C13.0796 4.74376 13.0272 4.66527 12.9611 4.59916C12.8949 4.53305 12.8165 4.4806 12.7301 4.44482C12.6437 4.40904 12.5511 4.39063 12.4577 4.39062C12.3642 4.39062 12.2716 4.40904 12.1852 4.44482C12.0988 4.4806 12.0204 4.53305 11.9543 4.59916C11.8881 4.66527 11.8357 4.74376 11.7999 4.83014C11.7642 4.91652 11.7458 5.0091 11.7458 5.10259V5.10259Z" fill="#4E5969"/>
<path d="M11.6271 6.72239C11.5991 6.21218 11.4342 5.71892 11.1499 5.29434C10.8656 4.86977 10.4723 4.52952 10.0112 4.30929C9.55009 4.08906 9.03824 3.99696 8.52931 4.04266C8.02037 4.08835 7.53311 4.27016 7.11863 4.569C6.70959 4.27542 6.23001 4.09554 5.72879 4.04772C5.22757 3.99989 4.72263 4.08582 4.26545 4.29674C3.80826 4.50767 3.41518 4.83605 3.12627 5.24841C2.83736 5.66076 2.66296 6.14235 2.62083 6.64408C1.93627 6.84373 1.34655 7.28331 0.959673 7.88232C0.572796 8.48132 0.414662 9.19965 0.514236 9.90574C0.613809 10.6118 0.964424 11.2584 1.50186 11.7271C2.0393 12.1957 2.72759 12.4551 3.44066 12.4576C3.56404 12.4576 3.68728 12.4497 3.80965 12.4339C4.18662 12.9211 4.67015 13.3155 5.22317 13.5868C5.77618 13.8581 6.38399 13.9992 6.99999 13.9992C7.61598 13.9992 8.22379 13.8581 8.77681 13.5868C9.32982 13.3155 9.81336 12.9211 10.1903 12.4339C10.3127 12.4497 10.4359 12.4576 10.5593 12.4576C11.2526 12.4588 11.9245 12.2171 12.4581 11.7744C12.9917 11.3317 13.3534 10.7161 13.4803 10.0344C13.6072 9.35283 13.4913 8.64828 13.1528 8.04322C12.8142 7.43816 12.2744 6.97082 11.6271 6.72239V6.72239ZM10.5593 11.2712C10.4847 11.2709 10.4103 11.2662 10.3363 11.257C10.2875 11.2503 10.2383 11.2471 10.1891 11.2475C10.0085 11.248 9.83045 11.2897 9.66844 11.3695C9.50642 11.4493 9.36475 11.565 9.25422 11.7078C8.98819 12.0525 8.64665 12.3316 8.25585 12.5237C7.86506 12.7157 7.43542 12.8156 6.99999 12.8156C6.56455 12.8156 6.13492 12.7157 5.74412 12.5237C5.35333 12.3316 5.01178 12.0525 4.74575 11.7078C4.63498 11.5647 4.49293 11.4488 4.33047 11.369C4.16802 11.2892 3.98946 11.2476 3.80846 11.2475C3.75926 11.2471 3.71009 11.2503 3.66134 11.257C3.58813 11.2661 3.51444 11.2708 3.44066 11.2712C3.01207 11.2708 2.59802 11.1157 2.27462 10.8344C1.95122 10.5531 1.74019 10.1646 1.6803 9.7402C1.62042 9.31581 1.7157 8.88406 1.94865 8.52429C2.18159 8.16452 2.53655 7.9009 2.94829 7.78188C3.17973 7.71555 3.38551 7.58037 3.5383 7.39431C3.69109 7.20825 3.78366 6.98011 3.80372 6.74019C3.84064 6.3264 4.03064 5.94129 4.33653 5.66019C4.64242 5.3791 5.04219 5.22226 5.45761 5.22036C5.80517 5.2196 6.14405 5.32882 6.42575 5.53239C6.6276 5.67761 6.86997 5.75573 7.11863 5.75573C7.36729 5.75573 7.60966 5.67761 7.81151 5.53239C8.05323 5.35831 8.33731 5.25243 8.634 5.22584C8.93069 5.19926 9.22907 5.25295 9.49788 5.38129C9.76669 5.50963 9.99605 5.7079 10.1619 5.95533C10.3278 6.20275 10.4241 6.49023 10.4407 6.78764C10.4529 7.01579 10.5307 7.23556 10.6647 7.42056C10.7988 7.60556 10.9834 7.74792 11.1964 7.83053C11.5842 7.97969 11.9076 8.25982 12.1105 8.62237C12.3134 8.98493 12.3831 9.40705 12.3074 9.81558C12.2318 10.2241 12.0156 10.5933 11.6963 10.8592C11.377 11.125 10.9748 11.2708 10.5593 11.2712V11.2712Z" fill="#4E5969"/>
<path d="M10.4739 10.2384C10.5024 10.2147 10.5605 10.1731 10.6459 10.1197C10.7614 10.0457 10.8623 9.95123 10.9437 9.84093C10.9964 9.7618 11.0249 9.66903 11.0256 9.57398C11.0267 9.48947 11.0018 9.40667 10.9544 9.33669C10.9062 9.26569 10.8375 9.21107 10.7575 9.18008C10.6455 9.14125 10.5271 9.12394 10.4087 9.12907C10.2943 9.12422 10.1801 9.14237 10.0729 9.18246C9.99616 9.2141 9.93051 9.26777 9.88425 9.33669C9.83471 9.42011 9.80356 9.51315 9.7929 9.60958L10.2176 9.64398C10.2214 9.57799 10.2459 9.51486 10.2876 9.46364C10.3236 9.43121 10.3703 9.41326 10.4187 9.41326C10.4672 9.41326 10.5139 9.43121 10.5498 9.46364C10.5665 9.47859 10.5797 9.4969 10.5887 9.51736C10.5977 9.53781 10.6022 9.55994 10.6021 9.58229C10.5994 9.63213 10.5812 9.67987 10.5498 9.71873C10.4805 9.79935 10.4007 9.87037 10.3126 9.92991C10.1529 10.0367 10.0118 10.169 9.89493 10.3214C9.82223 10.4276 9.77623 10.5497 9.76086 10.6774H11.0339V10.3309H10.3719C10.411 10.293 10.4407 10.2621 10.4739 10.2384V10.2384ZM5.54781 9.68907C5.43173 9.79346 5.28034 9.84986 5.12425 9.84686C5.02117 9.84973 4.91878 9.82911 4.82485 9.78656C4.73091 9.74401 4.64788 9.68065 4.58205 9.60127C4.44324 9.43754 4.37442 9.1611 4.37442 8.77076C4.37442 8.40692 4.44482 8.14313 4.58561 7.97941C4.65341 7.90005 4.73821 7.83698 4.83372 7.79488C4.92923 7.75278 5.03299 7.73271 5.1373 7.73619C5.28819 7.73064 5.43609 7.77926 5.55425 7.87327C5.67241 7.96727 5.75303 8.10045 5.78154 8.24873L6.39256 8.1028C6.34168 7.89043 6.23379 7.69598 6.08053 7.54042C5.83244 7.31316 5.50428 7.19368 5.16815 7.20822C4.97535 7.20052 4.78314 7.23424 4.60447 7.3071C4.4258 7.37996 4.26483 7.49027 4.13239 7.63059C3.869 7.91217 3.7373 8.30765 3.7373 8.81703C3.7373 9.29873 3.86821 9.67799 4.13002 9.95483C4.2577 10.0915 4.41307 10.1993 4.58575 10.2711C4.75843 10.3429 4.94444 10.3771 5.13137 10.3713C5.42072 10.3844 5.70622 10.3009 5.9429 10.134C6.17726 9.94465 6.34074 9.68166 6.4068 9.38771L5.81358 9.19788C5.77858 9.38539 5.68563 9.55719 5.54781 9.68907V9.68907ZM8.06781 7.21178C7.84219 7.20668 7.61786 7.24703 7.40815 7.33042C7.25903 7.3942 7.12456 7.48788 7.01307 7.60568C6.89439 7.72756 6.79802 7.86931 6.72832 8.02449C6.62849 8.27357 6.58084 8.54049 6.58832 8.80873C6.58832 9.29635 6.72239 9.6772 6.99171 9.95483C7.13352 10.0959 7.30322 10.2058 7.48995 10.2775C7.67669 10.3492 7.87633 10.3812 8.07612 10.3713C8.27466 10.3802 8.47288 10.3477 8.65815 10.2758C8.84343 10.2039 9.01169 10.0942 9.15222 9.95364C9.42036 9.67443 9.55442 9.28805 9.55442 8.79449C9.55442 8.30093 9.41917 7.91217 9.14866 7.62822C9.00722 7.48766 8.83809 7.37805 8.65202 7.30636C8.46595 7.23466 8.267 7.20246 8.06781 7.21178ZM8.67883 9.58466C8.6017 9.66878 8.50792 9.73594 8.40345 9.78188C8.29898 9.82783 8.18609 9.85156 8.07197 9.85156C7.95784 9.85156 7.84496 9.82783 7.74049 9.78188C7.63601 9.73594 7.54224 9.66878 7.4651 9.58466C7.30691 9.40669 7.22781 9.14449 7.22781 8.79805C7.22781 8.44212 7.30612 8.18347 7.4651 8.00788C7.54484 7.92568 7.64027 7.86033 7.74574 7.81571C7.85121 7.77108 7.96456 7.74809 8.07908 7.74809C8.1936 7.74809 8.30696 7.77108 8.41243 7.81571C8.51789 7.86033 8.61333 7.92568 8.69307 8.00788C8.84414 8.17398 8.91968 8.43104 8.91968 8.77907C8.91968 9.12709 8.84058 9.39404 8.68239 9.57991L8.67883 9.58466Z" fill="#4E5969"/>
</g>
</g>
<defs>
<clipPath id="clip0_200526_285551">
<rect width="14" height="14" fill="white"/>
</clipPath>
<clipPath id="clip1_200526_285551">
<rect width="14" height="14" fill="white"/>
</clipPath>
</defs>
</svg>
