<svg width="24" height="24" viewBox="0 0 24 24" fill="none" xmlns="http://www.w3.org/2000/svg">
<path d="M16.0691 5.93936C16.2378 5.93936 16.3816 6.12372 16.3816 6.34088V18.0632H7.63243V6.34245C7.63243 6.12372 7.77617 5.94092 7.9449 5.94092H16.0691M16.0691 5.00195H7.9449C7.25435 5.00195 6.69503 5.60189 6.69503 6.34088V18.0632H5.00769V19.0006H19.0063V18.0632H17.319V6.34245C17.319 5.60189 16.7597 5.00195 16.0691 5.00195V5.00195Z" fill="#4E5969"/>
<path d="M14.663 7.81436V9.06424H9.35098V7.81436H14.663ZM15.6004 6.87695H8.41357V10.0016H15.6004V6.87695V6.87695Z" fill="#4E5969"/>
<path d="M10.1322 14.6715H12.007V10.9219L10.1322 14.6715Z" fill="#4E5969"/>
<path d="M12.0071 13.5781V17.3278L13.8819 13.5781H12.0071Z" fill="#4E5969"/>
</svg>
