<svg width="14" height="14" viewBox="0 0 14 14" fill="none" xmlns="http://www.w3.org/2000/svg">
<g clip-path="url(#clip0_200804_191685)">
<path d="M12.712 11.2697H2.26038V1.75668C2.26022 1.7245 2.24741 1.69366 2.22471 1.67085C2.202 1.64803 2.17123 1.63507 2.13904 1.63477H1.28796C1.25577 1.63507 1.225 1.64803 1.2023 1.67085C1.17959 1.69366 1.16678 1.7245 1.16663 1.75668V12.245C1.16678 12.2772 1.17959 12.308 1.2023 12.3309C1.225 12.3537 1.25577 12.3666 1.28796 12.3669H12.712C12.7441 12.3666 12.7749 12.3537 12.7976 12.3309C12.8203 12.308 12.8331 12.2772 12.8333 12.245V11.391C12.8331 11.3588 12.8203 11.328 12.7976 11.3052C12.7749 11.2824 12.7441 11.2694 12.712 11.2691V11.2697Z" fill="#165DFF"/>
<path d="M3.86756 8.91575C3.91423 8.963 3.99064 8.963 4.03906 8.91575L6.14023 6.81808L8.07864 8.77575C8.12531 8.823 8.20289 8.823 8.25014 8.77575L12.4338 4.57866C12.4566 4.55571 12.4694 4.52468 12.4694 4.49233C12.4694 4.45998 12.4566 4.42895 12.4338 4.406L11.8324 3.80283C11.8096 3.78025 11.7788 3.76758 11.7466 3.76758C11.7145 3.76758 11.6837 3.78025 11.6609 3.80283L8.16673 7.3075L6.23123 5.35333C6.2084 5.33075 6.17759 5.31808 6.14548 5.31808C6.11337 5.31808 6.08255 5.33075 6.05973 5.35333L3.26789 8.13816C3.24509 8.16111 3.2323 8.19215 3.2323 8.2245C3.2323 8.25685 3.24509 8.28788 3.26789 8.31083L3.86756 8.91575V8.91575Z" fill="#165DFF"/>
</g>
<defs>
<clipPath id="clip0_200804_191685">
<rect width="14" height="14" fill="white"/>
</clipPath>
</defs>
</svg>
