<svg width="42" height="42" viewBox="0 0 42 42" fill="none" xmlns="http://www.w3.org/2000/svg">
<path d="M41 20C41 31.0457 32.0457 40 21 40C9.9543 40 1 31.0457 1 20C1 8.9543 9.9543 0 21 0C32.0457 0 41 8.9543 41 20Z" fill="#F6F7FB"/>
<g filter="url(#filter0_ii_200772_3849)">
<path fill-rule="evenodd" clip-rule="evenodd" d="M25.9175 11.0107H25.898H15C13.346 11.0107 12 12.3567 12 14.0107V17.0107V19.0107V26.0107C12 27.6647 13.346 29.0107 15 29.0107H27C28.654 29.0107 30 27.6647 30 26.0107V19.0107V17.0107V14.9867L25.9175 11.0107Z" fill="#7DA2FF"/>
</g>
<g filter="url(#filter1_f_200772_3849)">
<ellipse cx="21.3752" cy="27.1357" rx="8.625" ry="1.875" fill="#7CA0FD"/>
</g>
<path d="M27.9069 14.9863H30L25.9069 11V12.9863C25.9069 14.0908 26.8024 14.9863 27.9069 14.9863Z" fill="#B9CDFA"/>
<path d="M25.1252 22.0732H23.7502V20.0107H27.1877V22.0732H25.8127V24.1357H25.1252V22.0732ZM21.6877 19.3232V21.3857H14.8127V19.3232H21.6877ZM21.6877 24.1357H14.8127V22.0732H21.6877V24.1357ZM27.1877 18.6357H14.8127V16.5732H27.1877V18.6357ZM16.1877 17.2607V17.9482H16.8752V17.2607H16.1877ZM17.5627 17.2607V17.9482H18.2502V17.2607H17.5627ZM16.1877 20.0107V20.6982H16.8752V20.0107H16.1877ZM17.5627 20.0107V20.6982H18.2502V20.0107H17.5627ZM16.1877 22.7607V23.4482H16.8752V22.7607H16.1877ZM17.5627 22.7607V23.4482H18.2502V22.7607H17.5627ZM23.7502 23.4482H24.4377V24.1357H23.7502V23.4482ZM22.3752 23.4482H23.0627V24.1357H22.3752V23.4482Z" fill="white"/>
<defs>
<filter id="filter0_ii_200772_3849" x="12" y="4.8922" width="18" height="24.1185" filterUnits="userSpaceOnUse" color-interpolation-filters="sRGB">
<feFlood flood-opacity="0" result="BackgroundImageFix"/>
<feBlend mode="normal" in="SourceGraphic" in2="BackgroundImageFix" result="shape"/>
<feColorMatrix in="SourceAlpha" type="matrix" values="0 0 0 0 0 0 0 0 0 0 0 0 0 0 0 0 0 0 127 0" result="hardAlpha"/>
<feOffset dy="-6.11855"/>
<feGaussianBlur stdDeviation="3.82409"/>
<feComposite in2="hardAlpha" operator="arithmetic" k2="-1" k3="1"/>
<feColorMatrix type="matrix" values="0 0 0 0 0.0716667 0 0 0 0 0.136167 0 0 0 0 0.716667 0 0 0 0.35 0"/>
<feBlend mode="normal" in2="shape" result="effect1_innerShadow_200772_3849"/>
<feColorMatrix in="SourceAlpha" type="matrix" values="0 0 0 0 0 0 0 0 0 0 0 0 0 0 0 0 0 0 127 0" result="hardAlpha"/>
<feOffset dy="-2.29445"/>
<feGaussianBlur stdDeviation="1.52964"/>
<feComposite in2="hardAlpha" operator="arithmetic" k2="-1" k3="1"/>
<feColorMatrix type="matrix" values="0 0 0 0 1 0 0 0 0 1 0 0 0 0 1 0 0 0 0.25 0"/>
<feBlend mode="normal" in2="effect1_innerShadow_200772_3849" result="effect2_innerShadow_200772_3849"/>
</filter>
<filter id="filter1_f_200772_3849" x="0.750153" y="13.2607" width="41.25" height="27.75" filterUnits="userSpaceOnUse" color-interpolation-filters="sRGB">
<feFlood flood-opacity="0" result="BackgroundImageFix"/>
<feBlend mode="normal" in="SourceGraphic" in2="BackgroundImageFix" result="shape"/>
<feGaussianBlur stdDeviation="6" result="effect1_foregroundBlur_200772_3849"/>
</filter>
</defs>
</svg>
