<svg width="14" height="14" viewBox="0 0 14 14" fill="none" xmlns="http://www.w3.org/2000/svg">
<g clip-path="url(#clip0_200804_191635)">
<path fill-rule="evenodd" clip-rule="evenodd" d="M2.04171 1.45898C1.71954 1.45898 1.45837 1.72015 1.45837 2.04232V5.83398C1.45837 6.15615 1.71954 6.41732 2.04171 6.41732H5.83337C6.15554 6.41732 6.41671 6.15615 6.41671 5.83398V2.04232C6.41671 1.72015 6.15554 1.45898 5.83337 1.45898H2.04171ZM2.62504 5.25065V2.62565H5.25004V5.25065H2.62504ZM8.16671 1.45898C7.84454 1.45898 7.58337 1.72015 7.58337 2.04232V5.83398C7.58337 6.15615 7.84454 6.41732 8.16671 6.41732H11.9584C12.2805 6.41732 12.5417 6.15615 12.5417 5.83398V2.04232C12.5417 1.72015 12.2805 1.45898 11.9584 1.45898H8.16671ZM8.75004 5.25065V2.62565H11.375V5.25065H8.75004ZM1.45837 8.16732C1.45837 7.84515 1.71954 7.58398 2.04171 7.58398H5.83337C6.15554 7.58398 6.41671 7.84515 6.41671 8.16732V11.959C6.41671 12.2812 6.15554 12.5423 5.83337 12.5423H2.04171C1.71954 12.5423 1.45837 12.2812 1.45837 11.959V8.16732ZM2.62504 8.75065V11.3757H5.25004V8.75065H2.62504ZM8.16671 7.58398C7.84454 7.58398 7.58337 7.84515 7.58337 8.16732V11.959C7.58337 12.2812 7.84454 12.5423 8.16671 12.5423H11.9584C12.2805 12.5423 12.5417 12.2812 12.5417 11.959V8.16732C12.5417 7.84515 12.2805 7.58398 11.9584 7.58398H8.16671ZM8.75004 11.3757V8.75065H11.375V11.3757H8.75004Z" fill="#4E5969"/>
</g>
<defs>
<clipPath id="clip0_200804_191635">
<rect width="14" height="14" fill="white"/>
</clipPath>
</defs>
</svg>
