<svg width="14" height="14" viewBox="0 0 14 14" fill="none" xmlns="http://www.w3.org/2000/svg">
<g clip-path="url(#clip0_200526_285546)">
<path d="M7.03031 1.13564C6.85531 0.988641 6.60331 0.988641 6.42831 1.13564C6.24865 1.28731 2.04865 4.86897 2.04865 8.61631C2.04631 11.1993 4.14631 13.2993 6.72931 13.2993C9.30998 13.2993 11.41 11.1993 11.41 8.61864C11.41 4.87131 7.20765 1.28731 7.03031 1.13564V1.13564ZM6.72931 12.366C4.66198 12.366 2.98198 10.6836 2.98198 8.61864C2.98198 5.84431 5.79131 2.99531 6.72931 2.12264C7.66731 2.99764 10.4766 5.84664 10.4766 8.61864C10.4766 10.6836 8.79431 12.366 6.72931 12.366Z" fill="#4E5969"/>
<path d="M7.97067 7.8499L6.58 7.84756L7.46667 6.9609C7.64867 6.7789 7.64867 6.48256 7.46667 6.30056C7.28467 6.11856 6.98833 6.11856 6.80633 6.30056L5.124 7.98056C4.991 8.11356 4.95133 8.31423 5.02367 8.48923C5.096 8.66423 5.26633 8.77623 5.453 8.77856L6.84367 8.7809L5.957 9.66756C5.89179 9.73287 5.84736 9.81602 5.82931 9.90653C5.81126 9.99704 5.8204 10.0909 5.85558 10.1762C5.89076 10.2615 5.9504 10.3345 6.027 10.386C6.10359 10.4375 6.19371 10.4652 6.286 10.4656C6.405 10.4656 6.524 10.4189 6.615 10.3279L8.295 8.6479C8.428 8.5149 8.46767 8.31423 8.39533 8.13923C8.323 7.96423 8.15967 7.8499 7.97067 7.8499V7.8499Z" fill="#4E5969"/>
</g>
<defs>
<clipPath id="clip0_200526_285546">
<rect width="14" height="14" fill="white"/>
</clipPath>
</defs>
</svg>
