<svg width="14" height="14" viewBox="0 0 14 14" fill="none" xmlns="http://www.w3.org/2000/svg">
<g clip-path="url(#clip0_200526_223209)">
<path fill-rule="evenodd" clip-rule="evenodd" d="M6.12498 1.45898H7.87498V3.20898H6.12498V1.45898ZM6.99998 5.54232C6.19456 5.54232 5.54165 6.19524 5.54165 7.00065C5.54165 7.80607 6.19456 8.45898 6.99998 8.45898C7.8054 8.45898 8.45831 7.80607 8.45831 7.00065C8.45831 6.19524 7.8054 5.54232 6.99998 5.54232ZM4.37498 7.00065C4.37498 5.5509 5.55023 4.37565 6.99998 4.37565C8.44973 4.37565 9.62498 5.5509 9.62498 7.00065C9.62498 8.4504 8.44973 9.62565 6.99998 9.62565C5.55023 9.62565 4.37498 8.4504 4.37498 7.00065ZM7.87498 12.5423V10.7923H6.12498V12.5423H7.87498ZM12.5416 7.87565H10.7916V6.12565H12.5416V7.87565ZM3.20831 7.87565L3.20831 6.12565H1.45831V7.87565H3.20831ZM11.5372 10.3005L10.2998 11.5379L9.06237 10.3005L10.2998 9.06305L11.5372 10.3005ZM3.70015 4.93825L4.93758 3.70082L3.70015 2.46338L2.46271 3.70082L3.70015 4.93825ZM3.70032 11.5379L2.46289 10.3005L3.70032 9.06304L4.93776 10.3005L3.70032 11.5379ZM9.06255 3.70083L10.3 4.93826L11.5374 3.70083L10.3 2.46339L9.06255 3.70083Z" fill="#165DFF"/>
</g>
<defs>
<clipPath id="clip0_200526_223209">
<rect width="14" height="14" fill="white"/>
</clipPath>
</defs>
</svg>
