<svg width="14" height="14" viewBox="0 0 14 14" fill="none" xmlns="http://www.w3.org/2000/svg">
<g clip-path="url(#clip0_200526_223213)">
<path fill-rule="evenodd" clip-rule="evenodd" d="M1.16669 2.625C1.16669 2.14175 1.55844 1.75 2.04169 1.75H11.9584C12.4416 1.75 12.8334 2.14175 12.8334 2.625V9.04167C12.8334 9.52492 12.4416 9.91667 11.9584 9.91667H7.58335V11.0833H9.62502V12.25H4.37502V11.0833H6.41669V9.91667H2.04169C1.55844 9.91667 1.16669 9.52492 1.16669 9.04167V2.625ZM2.33335 2.91667V8.75H11.6667V2.91667H2.33335Z" fill="#165DFF"/>
<path d="M7.89959 7.71769C7.88181 7.71769 7.86541 7.71632 7.84763 7.71358C7.70955 7.69308 7.5947 7.59464 7.55369 7.46065L6.80857 5.00245L5.51384 6.80167C5.45095 6.88917 5.35115 6.94522 5.24177 6.95069C5.13377 6.95753 5.02849 6.91515 4.95466 6.83448L4.12478 5.93214L3.61209 6.51183C3.47947 6.66085 3.25115 6.67452 3.10213 6.5419C2.9531 6.40929 2.93943 6.18097 3.07205 6.03194L3.85134 5.15558C3.9197 5.07901 4.01677 5.03526 4.11795 5.0339C4.21775 5.0339 4.31756 5.07491 4.38728 5.15011L5.18709 6.01964L6.64998 3.988C6.73064 3.87589 6.86736 3.81983 7.00271 3.84308C7.13806 3.86632 7.24881 3.96339 7.28982 4.09464L8.02263 6.51456L9.22439 4.6921C9.29412 4.58546 9.41443 4.52394 9.54295 4.53077C9.67009 4.53624 9.78494 4.6087 9.84509 4.72081L10.7666 6.43936C10.8609 6.61573 10.7939 6.83448 10.6189 6.92882C10.4426 7.02315 10.2238 6.95616 10.1295 6.78116L9.49373 5.59581L8.20174 7.55499C8.13338 7.65753 8.0199 7.71769 7.89959 7.71769V7.71769Z" fill="#165DFF"/>
</g>
<defs>
<clipPath id="clip0_200526_223213">
<rect width="14" height="14" fill="white"/>
</clipPath>
</defs>
</svg>
