<svg width="18" height="18" viewBox="0 0 18 18" fill="none" xmlns="http://www.w3.org/2000/svg">
<path d="M16.344 14.4893H2.90625V2.25831C2.90605 2.21693 2.88958 2.17729 2.86039 2.14795C2.8312 2.11862 2.79163 2.10196 2.75025 2.10156H1.656C1.61462 2.10196 1.57505 2.11862 1.54586 2.14795C1.51667 2.17729 1.5002 2.21693 1.5 2.25831V15.7433C1.5002 15.7847 1.51667 15.8243 1.54586 15.8537C1.57505 15.883 1.61462 15.8997 1.656 15.9001H16.344C16.3854 15.8997 16.4249 15.883 16.4541 15.8537C16.4833 15.8243 16.4998 15.7847 16.5 15.7433V14.6453C16.4998 14.6039 16.4833 14.5643 16.4541 14.535C16.4249 14.5056 16.3854 14.489 16.344 14.4886V14.4893Z" fill="#4E5969"/>
<path d="M4.97252 11.4628C5.03252 11.5236 5.13077 11.5236 5.19302 11.4628L7.89452 8.76582L10.3868 11.2828C10.4468 11.3436 10.5465 11.3436 10.6073 11.2828L15.9863 5.88657C16.0156 5.85707 16.032 5.81717 16.032 5.77557C16.032 5.73398 16.0156 5.69408 15.9863 5.66457L15.213 4.88908C15.1837 4.86004 15.1441 4.84375 15.1028 4.84375C15.0615 4.84375 15.0219 4.86004 14.9925 4.88908L10.5 9.39507L8.01152 6.88257C7.98218 6.85354 7.94256 6.83725 7.90127 6.83725C7.85999 6.83725 7.82037 6.85354 7.79102 6.88257L4.20152 10.4631C4.17221 10.4926 4.15576 10.5325 4.15576 10.5741C4.15576 10.6157 4.17221 10.6556 4.20152 10.6851L4.97252 11.4628V11.4628Z" fill="#4E5969"/>
</svg>
