<svg width="24" height="24" viewBox="0 0 24 24" fill="none" xmlns="http://www.w3.org/2000/svg">
<path d="M18.4602 13.7682H17.1542V12.0042C17.1542 11.7453 16.9444 11.5354 16.6855 11.5354H12.5349V10.2265H13.8275C14.0864 10.2265 14.2963 10.0167 14.2963 9.75776V6.10901C14.2963 5.8501 14.0864 5.64026 13.8275 5.64026H10.1789C9.92001 5.64026 9.71017 5.8501 9.71017 6.10901V9.75776C9.71017 10.0167 9.92001 10.2265 10.1789 10.2265H11.5975V11.5354H7.32798C7.06908 11.5354 6.85923 11.7453 6.85923 12.0042V13.7682H5.54626C5.28736 13.7682 5.07751 13.9781 5.07751 14.237V17.8857C5.07751 18.1446 5.28736 18.3545 5.54626 18.3545H9.19501C9.45392 18.3545 9.66376 18.1446 9.66376 17.8857V14.237C9.66376 13.9781 9.45392 13.7682 9.19501 13.7682H7.79673V12.4729H16.2167V13.7682H14.8114C14.5525 13.7682 14.3427 13.9781 14.3427 14.237V17.8857C14.3427 18.1446 14.5525 18.3545 14.8114 18.3545H18.4602C18.7191 18.3545 18.9289 18.1446 18.9289 17.8857V14.237C18.9289 13.9781 18.7191 13.7682 18.4602 13.7682ZM10.6477 6.57776H13.3589V9.28901H10.6477V6.57776V6.57776ZM8.72626 17.417H6.01501V14.7057H8.72626V17.417V17.417ZM17.9914 17.417H15.2802V14.7057H17.9914V17.417V17.417Z" fill="#165DFF"/>
</svg>
