<svg width="14" height="14" viewBox="0 0 14 14" fill="none" xmlns="http://www.w3.org/2000/svg">
<g clip-path="url(#clip0_200526_223218)">
<g clip-path="url(#clip1_200526_223218)">
<path fill-rule="evenodd" clip-rule="evenodd" d="M11.1941 5.28135L9.95636 6.51905C9.61465 6.86076 9.06063 6.86076 8.71892 6.51905L7.48149 5.28161C7.13978 4.9399 7.13978 4.38588 7.48149 4.04418L8.71919 2.80647C7.84154 2.68177 6.91841 2.95733 6.24405 3.6317C5.34671 4.52903 5.15553 5.86683 5.6738 6.95174L5.85161 7.32397L2.73798 10.4376L3.56294 11.2626L6.67657 8.14892L7.0488 8.32674C8.1337 8.845 9.4715 8.65382 10.3688 7.75649C11.0432 7.08212 11.3188 6.159 11.1941 5.28135ZM11.0238 3.80169C11.3222 3.50325 11.8319 3.58771 12.0123 3.9772C12.7113 5.48631 12.4396 7.33564 11.1938 8.58144C10.0415 9.73378 8.37279 10.0528 6.93451 9.5409L4.18165 12.2938C3.83995 12.6355 3.28593 12.6355 2.94422 12.2938L1.70678 11.0563C1.36507 10.7146 1.36507 10.1606 1.70678 9.81888L4.45964 7.06603C3.94778 5.62775 4.26676 3.95907 5.41909 2.80674C6.6649 1.56093 8.51423 1.2892 10.0233 1.98819C10.4128 2.1686 10.4973 2.67829 10.1988 2.97673L8.51268 4.66289L9.33764 5.48785L11.0238 3.80169Z" fill="#165DFF"/>
</g>
</g>
<defs>
<clipPath id="clip0_200526_223218">
<rect width="14" height="14" fill="white"/>
</clipPath>
<clipPath id="clip1_200526_223218">
<rect width="14" height="14" fill="white"/>
</clipPath>
</defs>
</svg>
