<svg width="14" height="14" viewBox="0 0 14 14" fill="none" xmlns="http://www.w3.org/2000/svg">
<g clip-path="url(#clip0_200526_285587)">
<path fill-rule="evenodd" clip-rule="evenodd" d="M4.92019 1.80683C5.02539 1.42811 5.37021 1.16602 5.76327 1.16602H8.23655C8.62961 1.16602 8.97443 1.42811 9.07963 1.80683L9.3779 2.8806L10.457 2.602C10.8376 2.50375 11.237 2.67132 11.4335 3.01172L12.6702 5.15365C12.8667 5.49404 12.8121 5.92372 12.5367 6.20418L11.756 6.99935L12.5367 7.79452C12.8121 8.07499 12.8667 8.50466 12.6702 8.84505L11.4335 10.987C11.237 11.3274 10.8376 11.495 10.457 11.3967L9.3779 11.1181L9.07963 12.1919C8.97443 12.5706 8.62961 12.8327 8.23655 12.8327H5.76327C5.37021 12.8327 5.02539 12.5706 4.92019 12.1919L4.62194 11.1182L3.54303 11.3967C3.16245 11.495 2.76306 11.3274 2.56653 10.987L1.32989 8.84505C1.13336 8.50466 1.18793 8.07499 1.46331 7.79452L2.24407 6.99935L1.46331 6.20418C1.18794 5.92372 1.13337 5.49404 1.32989 5.15365L2.56654 3.01172C2.76306 2.67132 3.16246 2.50375 3.54303 2.602L4.62194 2.88054L4.92019 1.80683ZM4.54529 10.8422L4.5454 10.8426ZM5.98496 2.33268L5.66939 3.46872C5.54172 3.92833 5.06945 4.20099 4.60759 4.08175L3.46605 3.78704L2.4511 5.54499L3.27718 6.38632C3.61137 6.72668 3.61137 7.27202 3.27718 7.61238L2.4511 8.45371L3.46605 10.2117L4.60759 9.91695C5.06946 9.79771 5.54173 10.0704 5.66939 10.53L5.98496 11.666H8.01486L8.33044 10.5299C8.45811 10.0703 8.93038 9.79765 9.39225 9.91689L10.534 10.2117L11.549 8.45371L10.7229 7.61238C10.3887 7.27202 10.3887 6.72668 10.7229 6.38632L11.549 5.54499L10.534 3.78705L9.39225 4.08181C8.93038 4.20105 8.45811 3.92839 8.33044 3.46878L8.01486 2.33268H5.98496ZM6.99991 5.83268C6.35558 5.83268 5.83324 6.35502 5.83324 6.99935C5.83324 7.64368 6.35558 8.16602 6.99991 8.16602C7.64424 8.16602 8.16658 7.64368 8.16658 6.99935C8.16658 6.35502 7.64424 5.83268 6.99991 5.83268ZM4.66658 6.99935C4.66658 5.71068 5.71125 4.66602 6.99991 4.66602C8.28857 4.66602 9.33324 5.71068 9.33324 6.99935C9.33324 8.28801 8.28857 9.33268 6.99991 9.33268C5.71125 9.33268 4.66658 8.28801 4.66658 6.99935Z" fill="#4E5969"/>
</g>
<defs>
<clipPath id="clip0_200526_285587">
<rect width="14" height="14" fill="white"/>
</clipPath>
</defs>
</svg>
