<svg width="16" height="16" viewBox="0 0 16 16" fill="none" xmlns="http://www.w3.org/2000/svg">
<path fill-rule="evenodd" clip-rule="evenodd" d="M2.66663 1.33398C2.11434 1.33398 1.66663 1.7817 1.66663 2.33398V5.33398V6.66732V9.33398V10.6673V13.6673C1.66663 14.2196 2.11434 14.6673 2.66663 14.6673H13.3333C13.8856 14.6673 14.3333 14.2196 14.3333 13.6673V10.6673V9.33398V6.66732V5.33398V2.33398C14.3333 1.7817 13.8856 1.33398 13.3333 1.33398H2.66663ZM13 9.33398H2.99996V6.66732H13V9.33398ZM2.99996 13.334V10.6673H13V13.334H2.99996ZM13 5.33398V2.66732H2.99996V5.33398H13ZM5.00663 11.334H3.66663V12.674H5.00663V11.334ZM3.66663 3.33398H5.00663V4.67398H3.66663V3.33398ZM5.00663 7.33398H3.66663V8.67398H5.00663V7.33398Z" fill="#165DFF"/>
</svg>
