<svg width="14" height="14" viewBox="0 0 14 14" fill="none" xmlns="http://www.w3.org/2000/svg">
<path fill-rule="evenodd" clip-rule="evenodd" d="M5.31926 4.6453L3.91997 3.54291C4.57684 2.92185 5.42193 2.49004 6.41667 2.36792V3.93685H7.58333V2.36791C8.53875 2.48519 9.35568 2.8881 10.0005 3.46949L8.65384 4.66772L9.42937 5.53931L10.7629 4.35272C11.1756 4.96883 11.4494 5.67971 11.5588 6.41602H9.77077V7.58268H11.5918C11.4973 8.59254 11.0751 9.57785 10.265 10.3753L11.0835 11.2067C12.2946 10.0144 12.8155 8.48197 12.7772 6.98442C12.741 5.57339 12.2092 4.18522 11.2856 3.11768C10.2753 1.94997 8.79456 1.16602 7 1.16602C5.14241 1.16602 3.62215 2.00579 2.61113 3.24035C1.48099 4.62035 0.979258 6.50137 1.33223 8.27959C1.54268 9.33979 2.05684 10.3604 2.91653 11.2067L3.735 10.3753C3.17794 9.82692 2.8058 9.19162 2.59625 8.52224L4.7328 7.68862L4.30874 6.60175L2.39221 7.34952C2.34732 6.33087 2.6294 5.30222 3.17774 4.44339L4.59728 5.56173L5.31926 4.6453ZM4.95833 10.791C4.95833 9.86613 5.57331 9.08489 6.41666 8.8339V5.54102H7.58333V8.8339C8.42668 9.08489 9.04166 9.86613 9.04166 10.791C9.04166 11.9186 8.12758 12.8327 7 12.8327C5.87241 12.8327 4.95833 11.9186 4.95833 10.791ZM6.125 10.791C6.125 10.3078 6.51675 9.91602 7 9.91602C7.48325 9.91602 7.875 10.3078 7.875 10.791C7.875 11.2743 7.48325 11.666 7 11.666C6.51675 11.666 6.125 11.2743 6.125 10.791Z" fill="#4E5969"/>
</svg>
