<svg width="32" height="32" viewBox="0 0 32 32" fill="none" xmlns="http://www.w3.org/2000/svg">
<path d="M15.9929 2.42405L4.24172 9.21199V22.7879L15.9929 29.5759L27.744 22.7879V9.21199L15.9929 2.42402V2.42405ZM16.5551 0.150705L29.4307 7.58821C29.6016 7.687 29.7436 7.82903 29.8423 8.00005C29.9409 8.17107 29.9929 8.36504 29.9928 8.56249V23.4375C29.9929 23.6349 29.9409 23.8289 29.8422 23.9999C29.7436 24.1709 29.6016 24.313 29.4307 24.4118L16.555 31.8493C16.3841 31.948 16.1902 32 15.9928 32C15.7955 32 15.6016 31.948 15.4307 31.8493L2.55503 24.4118C2.38409 24.313 2.24215 24.1709 2.14348 23.9999C2.04481 23.8289 1.99288 23.6349 1.99291 23.4375V8.56249C1.99288 8.36504 2.04482 8.17106 2.1435 8.00005C2.24219 7.82903 2.38414 7.68699 2.55509 7.58821L15.4307 0.150705C15.6016 0.051978 15.7955 0 15.9929 0C16.1903 0 16.3842 0.051978 16.5551 0.150705H16.5551ZM12.7446 17C11.9293 17 11.385 16.1591 11.7185 15.4148L14.9668 8.1648C15.2209 7.59783 15.8862 7.34427 16.4528 7.59842C17.0195 7.85258 17.273 8.51821 17.019 9.08517L14.4808 14.75H19.2412C20.0504 14.75 20.5947 15.5795 20.273 16.3223L17.0246 23.8223C16.7777 24.3924 16.1156 24.6543 15.5458 24.4072C14.976 24.1602 14.7142 23.4978 14.9612 22.9277L17.5285 17H12.7445H12.7446Z" fill="#165DFF"/>
</svg>
